<svg width="48" height="48" viewBox="0 0 48 48" fill="none" xmlns="http://www.w3.org/2000/svg">
<g clip-path="url(#clip0_2_16)">
<path opacity="0.3" d="M16 10C14.8954 10 14 10.8954 14 12C14 13.1046 14.8954 14 16 14L36 14C37.1046 14 38 13.1046 38 12C38 10.8954 37.1046 10 36 10L16 10Z" fill="white"/>
<path fill-rule="evenodd" clip-rule="evenodd" d="M19.4141 16.586C19.7784 16.9632 19.98 17.4684 19.9754 17.9928C19.9709 18.5172 19.7605 19.0188 19.3897 19.3897C19.0189 19.7605 18.5173 19.9708 17.9929 19.9754C17.4685 19.9799 16.9633 19.7783 16.5861 19.414L10.5861 13.414C10.2111 13.039 10.0005 12.5303 10.0005 12C10.0005 11.4697 10.2111 10.9611 10.5861 10.586L16.5861 4.58602C16.9633 4.2217 17.4685 4.02012 17.9929 4.02467C18.5173 4.02923 19.0189 4.23957 19.3897 4.61038C19.7605 4.9812 19.9709 5.48282 19.9754 6.00722C19.98 6.53161 19.7784 7.03682 19.4141 7.41402L14.8281 12L19.4141 16.586Z" fill="white"/>
<path opacity="0.3" d="M32 34C33.1046 34 34 34.8954 34 36C34 37.1046 33.1046 38 32 38H12C10.8954 38 10 37.1046 10 36C10 34.8954 10.8954 34 12 34H32Z" fill="white"/>
<path fill-rule="evenodd" clip-rule="evenodd" d="M28.586 40.586C28.2216 40.9632 28.0201 41.4684 28.0246 41.9928C28.0292 42.5172 28.2395 43.0188 28.6103 43.3896C28.9811 43.7604 29.4828 43.9708 30.0072 43.9753C30.5316 43.9799 31.0368 43.7783 31.414 43.414L37.414 37.414C37.7889 37.0389 37.9995 36.5303 37.9995 36C37.9995 35.4696 37.7889 34.961 37.414 34.586L31.414 28.586C31.0368 28.2216 30.5316 28.0201 30.0072 28.0246C29.4828 28.0292 28.9811 28.2395 28.6103 28.6103C28.2395 28.9811 28.0292 29.4828 28.0246 30.0072C28.0201 30.5316 28.2216 31.0368 28.586 31.414L33.172 36L28.586 40.586Z" fill="white"/>
</g>
<defs>
<clipPath id="clip0_2_16">
<rect width="48" height="48" fill="white"/>
</clipPath>
</defs>
</svg>
