<svg width="48" height="49" viewBox="0 0 48 49" fill="none" xmlns="http://www.w3.org/2000/svg">
<g clip-path="url(#clip0_2_42)">
<path opacity="0.3" d="M41 28.05C42.6569 28.05 44 26.7069 44 25.05C44 23.3932 42.6569 22.05 41 22.05C39.3431 22.05 38 23.3932 38 25.05C38 26.7069 39.3431 28.05 41 28.05Z" fill="white"/>
<path opacity="0.3" d="M37.6431 2.14742L6.73349 10.4296C5.66656 10.7155 5.03339 11.8122 5.31927 12.8791L7.90746 22.5384C8.19335 23.6053 9.29002 24.2385 10.357 23.9526L41.2666 15.6704C42.3335 15.3845 42.9667 14.2878 42.6808 13.2209L40.0926 3.56163C39.8067 2.4947 38.7101 1.86154 37.6431 2.14742Z" fill="white"/>
<path fill-rule="evenodd" clip-rule="evenodd" d="M44 18.724C42.9331 18.2186 41.7556 17.9912 40.5772 18.063C39.3987 18.1348 38.2576 18.5036 37.26 19.1349C36.2623 19.7662 35.4405 20.6396 34.8711 21.6738C34.3017 22.708 34.003 23.8694 34.003 25.05C34.003 26.2307 34.3017 27.3921 34.8711 28.4263C35.4405 29.4605 36.2623 30.3339 37.26 30.9652C38.2576 31.5965 39.3987 31.9653 40.5772 32.0371C41.7556 32.1089 42.9331 31.8815 44 31.376V36.05C44 37.1109 43.5786 38.1283 42.8284 38.8785C42.0783 39.6286 41.0609 40.05 40 40.05H8C6.93913 40.05 5.92172 39.6286 5.17157 38.8785C4.42143 38.1283 4 37.1109 4 36.05V12.05C4 10.9892 4.42143 9.97177 5.17157 9.22162C5.92172 8.47148 6.93913 8.05005 8 8.05005H40C41.0609 8.05005 42.0783 8.47148 42.8284 9.22162C43.5786 9.97177 44 10.9892 44 12.05V18.724Z" fill="white"/>
</g>
<defs>
<clipPath id="clip0_2_42">
<rect width="48" height="48" fill="white" transform="translate(0 0.0500488)"/>
</clipPath>
</defs>
</svg>
