<svg width="48" height="48" viewBox="0 0 48 48" fill="none" xmlns="http://www.w3.org/2000/svg">
<g clip-path="url(#clip0_2_30)">
<path opacity="0.3" fill-rule="evenodd" clip-rule="evenodd" d="M9.75001 41.4999C9.49965 41.4974 9.25229 41.4451 9.02227 41.3463C8.79225 41.2474 8.58414 41.1038 8.41001 40.9239L4.57601 37.0919C4.3941 36.9189 4.24927 36.7108 4.1503 36.4801C4.05134 36.2494 4.00031 36.001 4.00031 35.7499C4.00031 35.4989 4.05134 35.2505 4.1503 35.0198C4.24927 34.7891 4.3941 34.5809 4.57601 34.4079C5.34201 33.6419 6.58801 33.6419 7.25801 34.4079L9.75001 36.8999L16.074 30.5759C16.247 30.394 16.4552 30.2492 16.6859 30.1502C16.9166 30.0513 17.165 30.0002 17.416 30.0002C17.667 30.0002 17.9154 30.0513 18.1461 30.1502C18.3768 30.2492 18.585 30.394 18.758 30.5759C18.9396 30.7489 19.0842 30.957 19.1829 31.1875C19.2817 31.418 19.3327 31.6662 19.3327 31.9169C19.3327 32.1677 19.2817 32.4159 19.1829 32.6464C19.0842 32.8769 18.9396 33.085 18.758 33.2579L11.092 40.9239C10.9176 41.1041 10.7092 41.2478 10.4788 41.3466C10.2484 41.4455 10.0007 41.4976 9.75001 41.4999Z" fill="white"/>
<path fill-rule="evenodd" clip-rule="evenodd" d="M4 23.73V12C4 10.4087 4.63214 8.88258 5.75736 7.75736C6.88258 6.63214 8.4087 6 10 6H38C39.5913 6 41.1174 6.63214 42.2426 7.75736C43.3679 8.88258 44 10.4087 44 12V30.02L44.05 30V39.172C44.0499 39.5675 43.9326 39.9541 43.7128 40.2829C43.493 40.6117 43.1807 40.868 42.8153 41.0194C42.4499 41.1707 42.0478 41.2103 41.6599 41.1332C41.272 41.056 40.9157 40.8656 40.636 40.586L36.05 36H25.968C25.802 33.5052 25.015 31.0914 23.6785 28.9782C22.342 26.865 20.4985 25.1194 18.3156 23.9002C16.1327 22.6809 13.6796 22.0267 11.1794 21.997C8.67924 21.9673 6.21129 22.563 4 23.73ZM12 14C11.4696 14 10.9609 14.2107 10.5858 14.5858C10.2107 14.9609 10 15.4696 10 16C10 16.5304 10.2107 17.0391 10.5858 17.4142C10.9609 17.7893 11.4696 18 12 18H30C30.5304 18 31.0391 17.7893 31.4142 17.4142C31.7893 17.0391 32 16.5304 32 16C32 15.4696 31.7893 14.9609 31.4142 14.5858C31.0391 14.2107 30.5304 14 30 14H12Z" fill="white"/>
</g>
<defs>
<clipPath id="clip0_2_30">
<rect width="48" height="48" fill="white"/>
</clipPath>
</defs>
</svg>
