<svg width="48" height="48" viewBox="0 0 48 48" fill="none" xmlns="http://www.w3.org/2000/svg">
<g clip-path="url(#clip0_2_56)">
<path opacity="0.3" fill-rule="evenodd" clip-rule="evenodd" d="M8 7.99996L23.262 5.13996C23.7497 5.0484 24.2503 5.0484 24.738 5.13996L40 7.99996V26.566C40.0001 29.4529 39.2659 32.2924 37.8664 34.8174C36.4669 37.3424 34.4482 39.47 32 41L25.06 45.338C24.7421 45.5366 24.3748 45.642 24 45.642C23.6252 45.642 23.2579 45.5366 22.94 45.338L16 41C13.5518 39.47 11.5331 37.3424 10.1336 34.8174C8.73409 32.2924 7.99988 29.4529 8 26.566V7.99996Z" fill="white"/>
<path opacity="0.3" fill-rule="evenodd" clip-rule="evenodd" d="M24 22C22.9392 22 21.9217 21.5786 21.1716 20.8284C20.4215 20.0783 20 19.0609 20 18C20 16.9391 20.4215 15.9217 21.1716 15.1716C21.9217 14.4214 22.9392 14 24 14C25.0609 14 26.0783 14.4214 26.8285 15.1716C27.5786 15.9217 28 16.9391 28 18C28 19.0609 27.5786 20.0783 26.8285 20.8284C26.0783 21.5786 25.0609 22 24 22ZM14 33C14.432 27.034 18.736 24 23.98 24C29.3 24 33.672 26.866 33.998 33C34.01 33.244 33.998 34 33.162 34H14.808C14.528 34 13.978 33.324 14 33Z" fill="white"/>
</g>
<defs>
<clipPath id="clip0_2_56">
<rect width="48" height="48" fill="white"/>
</clipPath>
</defs>
</svg>
