<svg width="49" height="48" viewBox="0 0 49 48" fill="none" xmlns="http://www.w3.org/2000/svg">
<g clip-path="url(#clip0_2_4)">
<path opacity="0.3" fill-rule="evenodd" clip-rule="evenodd" d="M41.806 10.704C42.1497 10.2998 42.6399 10.0487 43.1688 10.006C43.6976 9.9632 44.2218 10.1323 44.626 10.476C45.0302 10.8197 45.2813 11.3099 45.324 11.8388C45.3668 12.3676 45.1977 12.8918 44.854 13.296L27.854 33.296C27.6815 33.4989 27.4703 33.6653 27.2326 33.7855C26.995 33.9056 26.7357 33.9771 26.4701 33.9958C26.2044 34.0144 25.9377 33.9798 25.6856 33.894C25.4335 33.8081 25.2011 33.6728 25.002 33.496L16.002 25.496C15.8 25.3232 15.6345 25.1119 15.5152 24.8745C15.3958 24.637 15.325 24.3781 15.3068 24.113C15.2886 23.8478 15.3235 23.5817 15.4094 23.3301C15.4952 23.0786 15.6304 22.8467 15.8069 22.648C15.9834 22.4493 16.1977 22.2878 16.4374 22.1728C16.677 22.0579 16.9372 21.9919 17.2026 21.9787C17.4681 21.9655 17.7335 22.0053 17.9834 22.0958C18.2333 22.1864 18.4626 22.3258 18.658 22.506L26.13 29.146L41.806 10.704Z" fill="white"/>
<path fill-rule="evenodd" clip-rule="evenodd" d="M31.806 12.704C31.9762 12.5039 32.1841 12.3392 32.418 12.2194C32.6518 12.0997 32.9069 12.0271 33.1688 12.006C33.4306 11.9848 33.6941 12.0154 33.9441 12.096C34.1942 12.1767 34.4259 12.3058 34.626 12.476C34.8261 12.6462 34.9908 12.8541 35.1106 13.088C35.2303 13.3218 35.3029 13.5769 35.324 13.8388C35.3452 14.1006 35.3146 14.3641 35.234 14.6141C35.1533 14.8642 35.0242 15.0959 34.854 15.296L17.854 35.296C17.6815 35.4989 17.4703 35.6653 17.2326 35.7855C16.995 35.9056 16.7357 35.9771 16.4701 35.9958C16.2044 36.0144 15.9377 35.9798 15.6856 35.894C15.4335 35.8081 15.2011 35.6728 15.002 35.496L6.00201 27.496C5.80004 27.3232 5.63454 27.1119 5.51518 26.8745C5.39581 26.637 5.32497 26.3781 5.3068 26.1129C5.28863 25.8478 5.3235 25.5817 5.40936 25.3301C5.49522 25.0786 5.63035 24.8467 5.80686 24.648C5.98337 24.4493 6.19772 24.2878 6.43737 24.1728C6.67703 24.0579 6.93719 23.9919 7.20264 23.9787C7.46809 23.9655 7.73352 24.0053 7.9834 24.0958C8.23329 24.1864 8.46263 24.3258 8.65801 24.506L16.13 31.146L31.806 12.704Z" fill="white"/>
</g>
<defs>
<clipPath id="clip0_2_4">
<rect width="48" height="48" fill="white" transform="translate(0.329956)"/>
</clipPath>
</defs>
</svg>
