<svg width="96" height="36" viewBox="0 0 96 36" fill="none" xmlns="http://www.w3.org/2000/svg">
<rect width="96" height="35.9317" rx="17.9659" fill="#875CFF"/>
<path d="M77.9738 23.4772C80.9907 23.4772 83.4363 21.0316 83.4363 18.0147C83.4363 14.9979 80.9907 12.5523 77.9738 12.5523C74.957 12.5523 72.5114 14.9979 72.5114 18.0147C72.5114 21.0316 74.957 23.4772 77.9738 23.4772Z" stroke="white" stroke-width="1.26057" stroke-linecap="round" stroke-linejoin="round"/>
<path d="M83.9741 24.015L83.8648 23.9058M83.8648 12.1237L83.9741 12.0144L83.8648 12.1237ZM71.9734 24.015L72.0827 23.9058L71.9734 24.015ZM77.9737 9.67815V9.61092V9.67815ZM77.9737 26.4185V26.3513V26.4185ZM69.6372 18.0147H69.5699H69.6372ZM86.3775 18.0147H86.3103H86.3775ZM72.0827 12.1237L71.9734 12.0144L72.0827 12.1237Z" stroke="white" stroke-width="1.68076" stroke-linecap="round" stroke-linejoin="round"/>
<path d="M9.63379 18.3718C9.93632 22.6997 13.6088 26.2209 18.004 26.4142C21.105 26.5486 23.8782 25.1032 25.5422 22.8258C26.2313 21.8929 25.8615 21.2711 24.7102 21.4812C24.1471 21.582 23.5673 21.624 22.9622 21.5988C18.8528 21.4307 15.4912 17.9936 15.4744 13.9345C15.466 12.8421 15.6929 11.8084 16.1047 10.8672C16.5585 9.82509 16.0123 9.32926 14.9618 9.77466C11.6339 11.1781 9.35646 14.5312 9.63379 18.3718Z" stroke="white" stroke-width="1.26057" stroke-linecap="round" stroke-linejoin="round"/>
<ellipse cx="78.0888" cy="17.9659" rx="14.3072" ry="14.3618" transform="rotate(-135 78.0888 17.9659)" fill="white"/>
<path d="M86.4678 9.58678C91.0741 14.1931 91.0568 21.6787 86.4292 26.3064" stroke="#875CFF" stroke-width="2.83959" stroke-linecap="round"/>
</svg>
