<svg width="96" height="36" viewBox="0 0 96 36" fill="none" xmlns="http://www.w3.org/2000/svg">
<rect width="96" height="35.9317" rx="17.9659" fill="#875CFF"/>
<path d="M39.0609 11.7609C40.5722 11.7609 41.7974 10.5358 41.7974 9.02447C41.7974 7.51319 40.5722 6.28805 39.0609 6.28805C37.5497 6.28805 36.3245 7.51319 36.3245 9.02447C36.3245 10.5358 37.5497 11.7609 39.0609 11.7609Z" stroke="white" stroke-width="0.631482" stroke-linecap="round" stroke-linejoin="round"/>
<path d="M42.0668 12.0303L42.0121 11.9756M42.0121 6.07335L42.0668 6.01862L42.0121 6.07335ZM36.0551 12.0303L36.1098 11.9756L36.0551 12.0303ZM39.0609 4.84827V4.81459V4.84827ZM39.0609 13.2344V13.2007V13.2344ZM34.8847 9.02447H34.8511H34.8847ZM43.2708 9.02447H43.2371H43.2708ZM36.1098 6.07335L36.0551 6.01862L36.1098 6.07335Z" stroke="white" stroke-width="0.841976" stroke-linecap="round" stroke-linejoin="round"/>
<path d="M4.82602 9.20333C4.97758 11.3714 6.8173 13.1354 9.01907 13.2322C10.5725 13.2995 11.9618 12.5754 12.7953 11.4346C13.1405 10.9673 12.9553 10.6557 12.3786 10.761C12.0965 10.8115 11.806 10.8326 11.5029 10.8199C9.44426 10.7357 7.76031 9.01388 7.75189 6.98051C7.74768 6.43322 7.86135 5.91541 8.06763 5.4439C8.29497 4.92188 8.02132 4.67349 7.49509 4.89662C5.82798 5.59967 4.6871 7.27941 4.82602 9.20333Z" stroke="white" stroke-width="0.631482" stroke-linecap="round" stroke-linejoin="round"/>
<ellipse cx="8.97265" cy="9" rx="7.16717" ry="7.19453" transform="rotate(45 8.97265 9)" fill="white"/>
<path d="M4.7752 13.1975C2.46766 10.89 2.47632 7.14005 4.79454 4.82184" stroke="#875CFF" stroke-width="1.42249" stroke-linecap="round"/>
</svg>
